<svg width="21" height="21" viewBox="0 0 21 21" fill="none" xmlns="http://www.w3.org/2000/svg">
<path fill-rule="evenodd" clip-rule="evenodd" d="M0.31356 10.4998C0.313558 10.0755 0.652411 9.73152 1.07041 9.73152L11.2695 9.73148C11.6875 9.73148 12.0263 10.0755 12.0263 10.4998C12.0263 10.9241 11.6875 11.2681 11.2695 11.2681L1.07041 11.2681C0.652416 11.2681 0.313561 10.9241 0.31356 10.4998Z" fill="white"/>
<path fill-rule="evenodd" clip-rule="evenodd" d="M8.63267 14.7587C8.30627 14.4936 8.25335 14.0101 8.51447 13.6788L11.0195 10.5002L8.51447 7.32161C8.25335 6.99027 8.30627 6.50679 8.63267 6.24172C8.95907 5.97666 9.43535 6.03038 9.69647 6.36171L12.5293 9.95626C12.7799 10.2743 12.7799 10.7261 12.5293 11.0441L9.69647 14.6387C9.43535 14.97 8.95907 15.0237 8.63267 14.7587Z" fill="white"/>
<path fill-rule="evenodd" clip-rule="evenodd" d="M19.2336 1.53659L11.1605 1.53661C11.0212 1.53661 10.9082 1.65127 10.9082 1.79271V2.45125C10.9082 2.87557 10.5694 3.21954 10.1514 3.21954C9.73339 3.21954 9.39453 2.87557 9.39453 2.45125V1.79271C9.39453 0.802642 10.1852 3.11398e-05 11.1605 2.77816e-05L19.2336 0C20.2089 -3.3582e-06 20.9996 0.802609 20.9996 1.79268V19.2073C20.9996 20.1974 20.2089 21 19.2336 21H11.1605C10.1852 21 9.39453 20.1974 9.39453 19.2073V18.5488C9.39453 18.1245 9.73339 17.7805 10.1514 17.7805C10.5694 17.7805 10.9082 18.1245 10.9082 18.5488V19.2073C10.9082 19.3488 11.0212 19.4634 11.1605 19.4634H19.2336C19.3729 19.4634 19.4859 19.3488 19.4859 19.2073V1.79268C19.4859 1.65124 19.3729 1.53659 19.2336 1.53659Z" fill="white"/>
</svg>
