<svg width="16" height="16" viewBox="0 0 16 16" fill="none" xmlns="http://www.w3.org/2000/svg">
<path d="M13.3327 8V14.6667H2.66602V8" stroke="#56597A" stroke-width="2" stroke-linecap="round" stroke-linejoin="round"/>
<path d="M14.6673 4.66675H1.33398V8.00008H14.6673V4.66675Z" stroke="#56597A" stroke-width="2" stroke-linecap="round" stroke-linejoin="round"/>
<path d="M8 14.6666V4.66663" stroke="#56597A" stroke-width="2" stroke-linecap="round" stroke-linejoin="round"/>
<path d="M8.00065 4.66659H5.00065C4.55862 4.66659 4.1347 4.49099 3.82214 4.17843C3.50958 3.86587 3.33398 3.44195 3.33398 2.99992C3.33398 2.55789 3.50958 2.13397 3.82214 1.82141C4.1347 1.50885 4.55862 1.33325 5.00065 1.33325C7.33398 1.33325 8.00065 4.66659 8.00065 4.66659Z" stroke="#56597A" stroke-width="2" stroke-linecap="round" stroke-linejoin="round"/>
<path d="M8 4.66671H11C11.442 4.66671 11.866 4.49111 12.1785 4.17855C12.4911 3.86599 12.6667 3.44207 12.6667 3.00004C12.6667 2.55801 12.4911 2.13409 12.1785 1.82153C11.866 1.50897 11.442 1.33337 11 1.33337C8.66667 1.33337 8 4.66671 8 4.66671Z" stroke="#56597A" stroke-width="2" stroke-linecap="round" stroke-linejoin="round"/>
</svg>
