<svg width="18" height="18" viewBox="0 0 18 18" fill="none" xmlns="http://www.w3.org/2000/svg">
<path d="M11.25 15.75V12.75C11.25 12.3522 11.408 11.9706 11.6893 11.6893C11.9706 11.408 12.3522 11.25 12.75 11.25H15.75" stroke="#56597A" stroke-width="2" stroke-linecap="round" stroke-linejoin="round"/>
<path d="M5.25 3V4.5C5.41179 4.96011 5.71871 5.35518 6.12452 5.62572C6.53033 5.89626 7.01306 6.02762 7.5 6V6C7.89782 6 8.27936 6.15804 8.56066 6.43934C8.84196 6.72064 9 7.10218 9 7.5C9 7.89782 9.15804 8.27936 9.43934 8.56066C9.72064 8.84196 10.1022 9 10.5 9C10.8978 9 11.2794 8.84196 11.5607 8.56066C11.842 8.27936 12 7.89782 12 7.5C12 7.10218 12.158 6.72064 12.4393 6.43934C12.7206 6.15804 13.1022 6 13.5 6H15.75" stroke="#56597A" stroke-width="2" stroke-linecap="round" stroke-linejoin="round"/>
<path d="M2.25 8.25H3.75C4.14782 8.25 4.52936 8.40804 4.81066 8.68934C5.09196 8.97064 5.25 9.35218 5.25 9.75V10.5C5.25 10.8978 5.40804 11.2794 5.68934 11.5607C5.97064 11.842 6.35218 12 6.75 12C7.14782 12 7.52936 12.158 7.81066 12.4393C8.09196 12.7206 8.25 13.1022 8.25 13.5V16.5" stroke="#56597A" stroke-width="2" stroke-linecap="round" stroke-linejoin="round"/>
<path d="M9 16.5C13.1421 16.5 16.5 13.1421 16.5 9C16.5 4.85786 13.1421 1.5 9 1.5C4.85786 1.5 1.5 4.85786 1.5 9C1.5 13.1421 4.85786 16.5 9 16.5Z" stroke="#56597A" stroke-width="2" stroke-linecap="round" stroke-linejoin="round"/>
</svg>
