<svg width="22" height="17" viewBox="0 0 22 17" fill="none" xmlns="http://www.w3.org/2000/svg">
<path fill-rule="evenodd" clip-rule="evenodd" d="M2.81394 1.54545C2.10753 1.54545 1.53488 2.12206 1.53488 2.83333V14.1667C1.53488 14.8779 2.10753 15.4545 2.81394 15.4545H19.186C19.8924 15.4545 20.465 14.8779 20.465 14.1667V2.83333C20.465 2.12206 19.8924 1.54545 19.186 1.54545H2.81394ZM0 2.83333C0 1.26853 1.25984 0 2.81394 0H19.186C20.74 0 21.9999 1.26853 21.9999 2.83333V14.1667C21.9999 15.7315 20.74 17 19.186 17H2.81394C1.25984 17 0 15.7315 0 14.1667V2.83333Z" fill="#56597A"/>
<path fill-rule="evenodd" clip-rule="evenodd" d="M0.590512 4.09456C0.777386 3.71151 1.23727 3.55353 1.6177 3.74169L10.8874 8.32662C10.9586 8.36181 11.0419 8.36181 11.113 8.32662L20.3827 3.74169C20.7631 3.55353 21.223 3.71151 21.4099 4.09456C21.5968 4.4776 21.4399 4.94066 21.0595 5.12882L11.7897 9.71375C11.2918 9.96004 10.7086 9.96004 10.2107 9.71375L0.940963 5.12882C0.560539 4.94066 0.403637 4.4776 0.590512 4.09456Z" fill="#56597A"/>
<path fill-rule="evenodd" clip-rule="evenodd" d="M14.702 8.63122C14.6253 8.57519 14.5242 8.56639 14.4391 8.60836L11.7879 9.91641C11.2909 10.1616 10.7091 10.1616 10.2121 9.91641L7.56085 8.60836C7.47579 8.56639 7.37467 8.57519 7.29801 8.63122L1.21833 13.075C0.875333 13.3257 0.395431 13.249 0.14644 12.9036C-0.102551 12.5583 -0.0263432 12.0751 0.316655 11.8244L6.39634 7.38055C6.93291 6.98835 7.64081 6.92679 8.23622 7.22056L10.8874 8.52861C10.9584 8.56364 11.0416 8.56364 11.1126 8.52861L13.7638 7.22056C14.3592 6.92679 15.0671 6.98835 15.6037 7.38055L21.6833 11.8244C22.0263 12.0751 22.1026 12.5583 21.8536 12.9036C21.6046 13.249 21.1247 13.3257 20.7817 13.075L14.702 8.63122Z" fill="#56597A"/>
</svg>
